<?xml version="1.0" encoding="utf-8"?>
<!-- Generator: Adobe Illustrator 19.0.0, SVG Export Plug-In . SVG Version: 6.00 Build 0)  -->
<svg version="1.1" xmlns="http://www.w3.org/2000/svg"  x="0px" y="0px"
	 viewBox="0 0 500 500" style="enable-background:new 0 0 500 500;" xml:space="preserve">
<style type="text/css">
	.st0{fill:#231F20;}
	.st1{display:none;fill:#FEFEFE;}
	.st2{fill:#91C63E;}
</style>
<g id="Layer_2">
	<polygon id="XMLID_2_" class="st0" points="250,0 467,125 467,375 250,500 33,375 33,125 	"/>
</g>
<g id="Layer_1">
	<g id="XMLID_1_">
		<path id="XMLID_76_" class="st1" d="M74.5,250.9c0-59.7,0-119.4,0-179.2c0-0.7,0.2-0.8,0.8-0.8c116.5,0,233,0,349.5,0
			c0.7,0,0.8,0.2,0.8,0.8c0,119.4,0,238.9,0,358.3c0,0.7-0.2,0.8-0.8,0.8c-116.5,0-233,0-349.5,0c-0.7,0-0.8-0.2-0.8-0.8
			C74.5,370.3,74.5,310.6,74.5,250.9z M284.5,256c0.2,0.4,0.2,0.5,0.3,0.6c5.9,14.3,11.8,28.6,17.7,42.9c0.3,0.6,0.5,0.9,1.3,0.9
			c3-0.1,5.9-0.1,8.9-0.2c4.3,0,8.6-0.1,13-0.1c4.7,0,9.4-0.1,14-0.1c0.6,0,0.7,0.2,0.6,0.7c-0.2,1.3-0.2,2.6-0.4,3.9
			c-0.6,4.4-1.4,8.8-2.5,13.1c-1.9,7.7-4.5,15.2-7.6,22.5c-0.2,0.5-0.4,0.5-0.7,0.1c-1.2-1.3-2.4-2.6-3.6-3.9
			c-0.3-0.3-0.6-0.4-1-0.3c-1.2,0.3-2.4,0.6-3.7,0.8c-0.7,0.1-0.9,0.4-0.9,1.1c0,6.8,0,13.6,0,20.4c0,1.9-1.4,3-2.1,4.8
			c-0.2-0.5-0.3-0.7-0.4-0.9c-3.5-8.3-7.1-16.6-10.6-25c-0.2-0.6-0.5-0.8-1.1-0.7c-1.8,0-3.7,0-5.5,0c-0.6,0-0.8,0.2-1,0.7
			c-1.2,2.8-2.4,5.7-3.6,8.5c-2.8,6.5-5.6,13-8.4,19.5c-0.3,0.8-0.1,0.9,0.6,0.9c1.9,0,3.8,0,5.8,0c0.7,0,0.9-0.2,1.2-0.8
			c0.7-1.7,1.4-3.4,2-5.1c0.2-0.5,0.4-0.6,0.9-0.6c3.2,0,6.4,0,9.6,0c0.5,0,0.8,0.2,1,0.7c0.5,1.4,1.1,2.8,1.6,4.2
			c0.6,1.6,0.6,1.6,2.5,1.6c1.1,0,2.3,0,3.6,0c-0.2,0.4-0.4,0.6-0.5,0.9c-1.4,2.2-2.8,4.4-4.2,6.6c-1.2,2-2.6,3.9-3.4,6.1
			c-1.3,3.4,0.1,7,3.4,8.6c2.4,1.1,4.9,1.3,7.5,1.1c3.2-0.3,6.4-0.9,9.6-1.5c8.8-1.6,17.5-3.7,26.1-6.5c12.8-4.2,25-9.8,36.1-17.7
			c8.4-6,15.8-13.2,21.4-22c3.9-6,6.7-12.5,8.1-19.5c0.9-4.5,1.3-9,1.6-13.5c0.4-5.4,0.5-10.7,0.2-16.1c-0.3-5-1-9.9-2-14.8
			c-2.1-9.8-6.7-18.3-13.8-25.3c-4.6-4.5-9.7-8.2-15.5-11c-0.4-0.2-0.7-0.4-0.8-1c-0.1-1-0.2-2.1-0.4-3.1c-1-6.4-2.1-12.7-3.6-19
			c-1.8-7.9-4.3-15.5-7.8-22.8c-2.9-5.9-6.2-11.5-9.7-17.1c-3.7-6-7.8-11.7-12.4-17c-2.6-3-5.3-6-8-9.1c-0.5-0.5-0.9-1.1-0.8-1.8
			c0.3-1.7,0.1-3.4-0.2-5.1c-0.7-3.5-1.9-6.8-4.7-9.3c-1.9-1.7-3.7-3.3-5.7-4.8c-7.2-5.5-15-10.2-22.9-14.8
			c-7.1-4.2-14.8-7-22.7-9.3c-11.2-3.2-22.6-5-34.2-5.5c-6.5-0.3-13.1-0.1-19.6,0.5c-4.9,0.5-9.7,1.2-14.5,2.1
			c-9.7,1.9-19.1,4.5-28.2,8.2c-4.7,1.9-8.9,4.6-13.2,7.1c-7.7,4.5-15.2,9.3-21.8,15.3c-1.5,1.4-3,2.7-3.9,4.6
			c-1.5,3-2.4,6.2-2.2,9.6c0.1,1.6-0.4,2.8-1.5,4c-3.1,3.4-6.2,6.9-9.1,10.4c-5.4,6.5-9.8,13.6-14.1,20.7
			c-7.1,11.6-11.9,24.1-14.6,37.5c-1.2,6.2-2.3,12.4-3.2,18.7c-0.1,0.5-0.2,0.7-0.7,0.9c-2.7,1.2-5.2,2.7-7.6,4.4
			c-9.1,6.4-16.1,14.4-19.8,25.1c-3,8.6-4,17.5-4.2,26.5c-0.1,6.6,0.4,13.1,1.2,19.6c0.6,5.2,1.7,10.2,3.8,15
			c4.9,11.7,12.9,21,22.8,28.9c8.8,7,18.7,12.4,29.1,16.6c15,6.1,30.5,9.8,46.5,12c2.5,0.3,4.9,0.1,7.2-1c2.5-1.2,3.8-3.1,3.9-5.9
			c0.1-1.9-0.7-3.5-1.5-5c-2-3.5-4.2-6.8-6.4-10.1c-0.4-0.6-0.5-0.8,0.4-0.9c1.1-0.2,2.2-0.5,3.2-0.7c0.5-0.1,0.7-0.3,0.7-0.8
			c0-9.2,0-18.3,0-27.5c0-0.6-0.2-0.7-0.8-0.7c-2,0-3.9,0-5.9,0c-0.7,0-0.8,0.2-0.8,0.9c0.1,4.7,0.1,9.4,0.1,14.1
			c0,0.4,0.1,0.7-0.2,1.1c-3.4-3.8-6.8-7.5-10.2-11.2c-0.5-0.5-1.1-1-1.4-1.8c-2-4.7-3.8-9.5-5.3-14.4c-1.9-6.3-3.4-12.7-4.4-19.2
			c-0.4-2.8-0.7-5.5-0.9-8.3c0-0.6,0-0.9,0.7-0.8c1,0.1,1.9,0.1,2.9,0.1c4.1,0.1,8.2,0.1,12.2,0.2c3.3,0.1,6.5-0.1,9.8,0.1
			c0.5,0,0.8,0.2,1,0.7c2,4.2,4,8.4,6,12.7c0.8,1.7,1.6,3.3,2.5,5.2c9.6-25.6,19-51,28.4-76.7c6.9,22,13.7,43.7,20.5,65.5
			c0.1,0,0.1,0,0.2,0c1.8-5.1,3.6-10.2,5.5-15.6c5.2,17.6,10.3,35,15.5,52.3C271.7,313,278.1,284.6,284.5,256z M239.7,351.4
			c0,4.6,0,9.2,0,13.9c0,0.7,0.1,0.9,0.8,0.9c2.1,0,4.3,0,6.4,0c0.7,0,0.9-0.2,0.9-0.9c0-2.3,0-4.6,0-6.9c0-2.4,0-2.4,2.4-2.4
			c0.6,0,0.9,0.2,1.2,0.7c1.6,2.9,3.3,5.8,4.9,8.8c0.3,0.5,0.6,0.8,1.3,0.8c2.5,0,4.9,0,7.4,0c0.3,0,0.6,0.1,0.8-0.1
			c0.2-0.3-0.1-0.5-0.3-0.8c-2.3-3.7-4.7-7.4-7-11.1c-0.2-0.4-0.5-0.7,0.1-1c3-1.8,4.4-4.4,4.2-7.9c-0.2-3.3-1.7-5.8-4.6-7.3
			c-3.3-1.7-6.8-1.8-10.3-1.8c-2.4,0-4.8,0.2-7.3,0.4c-0.7,0.1-0.9,0.2-0.9,0.9C239.7,342.1,239.7,346.7,239.7,351.4z M217.6,351.3
			c0,4.6,0,9.3,0,13.9c0,0.8,0.2,1,1,1c6.1,0,12.1,0,18.2,0c0.7,0,0.9-0.3,1-0.9c0.1-1.5,0.3-2.9,0.5-4.4c0.1-0.7,0-1-0.8-1
			c-3.8,0-7.5,0-11.3,0c-0.6,0-0.8-0.2-0.8-0.8c0-1.5,0.1-3,0-4.5c0-0.7,0.2-0.9,0.9-0.9c2.7,0,5.4,0,8.1,0c0.7,0,0.9-0.2,0.8-0.9
			c-0.1-1.4,0-2.8,0-4.1c0-0.6-0.2-0.8-0.8-0.8c-2.7,0-5.4,0-8.1,0c-0.8,0-1-0.2-0.9-1c0.1-1.1,0.1-2.2,0-3.3
			c-0.1-0.8,0.2-1.1,1.1-1.1c3.1,0.1,6.1,0,9.2,0c0.6,0,0.8-0.2,0.8-0.8c0-1.4-0.1-2.9,0-4.3c0-0.8-0.2-0.9-1-0.9
			c-5.6,0-11.3,0-16.9,0c-0.7,0-1,0.2-1,0.9C217.6,342.1,217.6,346.7,217.6,351.3z M203.5,336.6c-3.8,0-7.7,0-11.5,0
			c-0.7,0-1,0.1-0.9,0.9c0.1,1.6,0,3.3,0,5c0,0.6,0.2,0.7,0.8,0.7c2.2,0,4.4,0,6.7,0c0.8,0,1.1,0.2,1.1,1c0,7,0,14,0,21.1
			c0,0.8,0.2,1,1,0.9c2-0.1,4-0.1,5.9,0c0.8,0,1.1-0.2,1.1-1.1c0-7,0-14,0-21.1c0-0.7,0.2-0.9,0.9-0.9c2.3,0.1,4.6,0,6.8,0
			c0.6,0,0.8-0.1,0.8-0.7c0-1.7,0-3.3,0-5c0-0.7-0.1-0.9-0.8-0.9C211.2,336.6,207.4,336.6,203.5,336.6z M267,351.3
			c0,4.6,0,9.2,0,13.9c0,0.7,0.2,0.9,0.9,0.9c4.8,0,9.6,0,14.4,0c1.2,0,2.3,0,3.5,0c0.3,0,0.6,0,0.6-0.4c0.2-1.8,0.4-3.6,0.7-5.4
			c0.1-0.8-0.2-0.9-0.9-0.9c-3.4,0-6.8,0-10.2,0c-0.8,0-1.1-0.2-1-1c0-7,0-13.9,0-20.9c0-0.7-0.1-0.9-0.9-0.9c-2.1,0.1-4.2,0-6.3,0
			c-0.7,0-0.9,0.2-0.9,0.9C267,342.1,267,346.7,267,351.3z"/>
		<path id="XMLID_71_" class="st2" d="M284.5,256c-6.4,28.6-12.8,57.1-19.5,85.5c-5.1-17.4-10.3-34.7-15.5-52.3
			c-1.9,5.4-3.7,10.5-5.5,15.6c-0.1,0-0.1,0-0.2,0c-6.8-21.8-13.7-43.5-20.5-65.5c-9.4,25.6-18.8,51-28.4,76.7
			c-0.9-1.9-1.7-3.5-2.5-5.2c-2-4.2-4-8.4-6-12.7c-0.2-0.5-0.5-0.6-1-0.7c-3.3-0.2-6.5-0.1-9.8-0.1c-4.1-0.1-8.2-0.1-12.2-0.2
			c-1,0-1.9,0-2.9-0.1c-0.7,0-0.8,0.2-0.7,0.8c0.2,2.8,0.5,5.5,0.9,8.3c0.9,6.5,2.4,12.9,4.4,19.2c1.5,4.9,3.3,9.7,5.3,14.4
			c0.3,0.7,0.9,1.2,1.4,1.8c3.4,3.7,6.7,7.4,10.2,11.2c0.3-0.4,0.2-0.8,0.2-1.1c0-4.7,0-9.4-0.1-14.1c0-0.7,0.1-0.9,0.8-0.9
			c2,0,3.9,0,5.9,0c0.6,0,0.8,0.1,0.8,0.7c0,9.2,0,18.3,0,27.5c0,0.5-0.1,0.7-0.7,0.8c-1.1,0.2-2.2,0.5-3.2,0.7
			c-0.8,0.1-0.7,0.4-0.4,0.9c2.1,3.4,4.4,6.7,6.4,10.1c0.9,1.5,1.6,3.1,1.5,5c-0.1,2.8-1.4,4.8-3.9,5.9c-2.3,1.1-4.7,1.3-7.2,1
			c-16-2.1-31.5-5.9-46.5-12c-10.4-4.2-20.3-9.6-29.1-16.6c-9.8-7.8-17.9-17.1-22.8-28.9c-2-4.8-3.1-9.8-3.8-15
			c-0.8-6.5-1.3-13.1-1.2-19.6c0.2-9,1.2-17.9,4.2-26.5c3.7-10.6,10.7-18.7,19.8-25.1c2.4-1.7,5-3.1,7.6-4.4
			c0.4-0.2,0.6-0.4,0.7-0.9c0.9-6.3,2-12.5,3.2-18.7c2.6-13.4,7.5-25.8,14.6-37.5c4.3-7.2,8.7-14.3,14.1-20.7c3-3.6,6-7,9.1-10.4
			c1.1-1.2,1.6-2.4,1.5-4c-0.3-3.4,0.7-6.6,2.2-9.6c0.9-1.8,2.4-3.2,3.9-4.6c6.6-6,14.2-10.8,21.8-15.3c4.3-2.5,8.5-5.3,13.2-7.1
			c9.1-3.7,18.5-6.4,28.2-8.2c4.8-0.9,9.6-1.6,14.5-2.1c6.5-0.6,13.1-0.8,19.6-0.5c11.6,0.5,23,2.3,34.2,5.5
			c7.9,2.3,15.6,5.1,22.7,9.3c7.8,4.6,15.7,9.2,22.9,14.8c2,1.5,3.8,3.2,5.7,4.8c2.8,2.5,4,5.7,4.7,9.3c0.3,1.7,0.5,3.4,0.2,5.1
			c-0.1,0.8,0.3,1.3,0.8,1.8c2.7,3,5.4,6,8,9.1c4.6,5.3,8.7,11,12.4,17c3.4,5.6,6.8,11.2,9.7,17.1c3.5,7.3,6,14.9,7.8,22.8
			c1.5,6.3,2.5,12.7,3.6,19c0.2,1,0.3,2.1,0.4,3.1c0,0.5,0.3,0.8,0.8,1c5.8,2.7,10.9,6.4,15.5,11c7.2,7.1,11.7,15.5,13.8,25.3
			c1.1,4.9,1.8,9.8,2,14.8c0.3,5.4,0.2,10.7-0.2,16.1c-0.3,4.5-0.8,9.1-1.6,13.5c-1.3,7.1-4.2,13.5-8.1,19.5
			c-5.6,8.8-13,15.9-21.4,22c-11,7.9-23.2,13.5-36.1,17.7c-8.5,2.8-17.2,4.9-26.1,6.5c-3.2,0.6-6.3,1.2-9.6,1.5
			c-2.6,0.3-5.1,0.1-7.5-1.1c-3.3-1.6-4.7-5.2-3.4-8.6c0.8-2.2,2.2-4.1,3.4-6.1c1.4-2.2,2.8-4.4,4.2-6.6c0.1-0.2,0.3-0.5,0.5-0.9
			c-1.3,0-2.4,0-3.6,0c-1.8,0-1.8,0-2.5-1.6c-0.5-1.4-1.1-2.8-1.6-4.2c-0.2-0.5-0.4-0.7-1-0.7c-3.2,0-6.4,0-9.6,0
			c-0.5,0-0.7,0.2-0.9,0.6c-0.7,1.7-1.4,3.4-2,5.1c-0.2,0.6-0.5,0.8-1.2,0.8c-1.9-0.1-3.8,0-5.8,0c-0.7,0-1-0.1-0.6-0.9
			c2.8-6.5,5.6-13,8.4-19.5c1.2-2.8,2.5-5.7,3.6-8.5c0.2-0.5,0.5-0.7,1-0.7c1.8,0,3.7,0,5.5,0c0.6,0,0.9,0.2,1.1,0.7
			c3.5,8.3,7,16.6,10.6,25c0.1,0.2,0.2,0.4,0.4,0.9c0.7-1.7,2.2-2.8,2.1-4.8c0-6.8,0-13.6,0-20.4c0-0.7,0.2-1,0.9-1.1
			c1.2-0.2,2.5-0.5,3.7-0.8c0.4-0.1,0.7,0,1,0.3c1.2,1.3,2.4,2.6,3.6,3.9c0.3,0.4,0.5,0.4,0.7-0.1c3.2-7.3,5.7-14.8,7.6-22.5
			c1.1-4.3,1.9-8.7,2.5-13.1c0.2-1.3,0.3-2.6,0.4-3.9c0.1-0.5,0-0.7-0.6-0.7c-4.7,0.1-9.4,0.1-14,0.1c-4.3,0-8.6,0-13,0.1
			c-3,0-5.9,0.1-8.9,0.2c-0.7,0-1-0.3-1.3-0.9c-5.9-14.3-11.8-28.6-17.7-42.9C284.7,256.5,284.6,256.3,284.5,256z M328.7,351.5
			c-0.8,1.4-1.5,2.6-1.4,4.2c0.2,3.1,0.1,6.3,0.2,9.5c0,0.8-0.2,1-1,0.9c-1.7-0.1-3.4,0-5.1,0c-0.9,0-1.3,0.3-1.7,1
			c-1,1.6-2.1,3.3-3.1,4.9c-1.8,2.8-3.6,5.5-5,8.4c-1.1,2.4-0.2,4.2,2.3,4.9c2,0.5,3.9,0.4,5.9,0.1c7.6-1.2,15.2-2.7,22.7-4.6
			c14.3-3.8,28-9,40.6-16.9c8.3-5.2,15.8-11.5,21.9-19.2c4.9-6.2,8.6-13,10.6-20.7c1.6-6.5,2.1-13.3,2.4-20
			c0.3-7.2,0.1-14.3-1.2-21.4c-1-5.8-2.5-11.5-5.4-16.7c-5.7-10-13.9-17.3-24.5-21.9c-0.5-0.2-0.8-0.5-0.8-1.1
			c-0.1-1.5-0.4-3-0.6-4.5c-0.6-4.4-1.4-8.8-2.2-13.1c-1.5-7.4-3.2-14.8-6-21.8c-2.8-7.1-6.5-13.6-10.4-20.1
			c-4.1-6.8-8.5-13.4-13.7-19.4c-2.8-3.3-5.7-6.5-8.6-9.7c-0.9-1-1.3-2.2-1.2-3.5c0-1.3,0.2-2.6,0-3.9c-0.5-3-1.4-5.9-3.8-8
			c-1.4-1.2-2.7-2.5-4.1-3.6c-6.2-4.9-13-9.1-19.8-13.2c-5.7-3.4-11.6-6.5-17.9-8.7c-10.1-3.4-20.5-5.8-31.1-7
			c-7.5-0.9-15.1-1.1-22.6-0.7c-7.4,0.3-14.8,1.3-22.1,2.8c-9,1.8-17.8,4.3-26.2,7.8c-4.4,1.8-8.4,4.4-12.5,6.8
			c-7.2,4.3-14.3,8.8-20.6,14.3c-2.4,2.1-4.3,4.5-5,7.7c-0.4,1.7-0.5,3.4-0.4,5.2c0.1,1.8-0.4,3.3-1.6,4.6c-2.2,2.4-4.4,4.9-6.6,7.4
			c-9.7,11-17.3,23.3-23.6,36.5c-4.9,10.1-7.2,21-9.1,31.9c-0.7,4.2-1.4,8.3-1.9,12.5c0,0.4-0.1,0.7-0.6,0.9
			c-5.2,2.1-9.8,5.1-14,8.8c-6.4,5.7-11.3,12.4-13.9,20.6c-2.6,8.2-3.5,16.6-3.6,25.1c-0.1,6.2,0.5,12.3,1.2,18.4
			c0.7,6.2,2.4,12,5.3,17.6c4.3,8.4,10.2,15.3,17.4,21.4c8.9,7.5,18.9,13.2,29.6,17.6c14.9,6.2,30.4,10,46.3,12.2
			c1.8,0.2,3.5,0.1,5.2-0.6c1.8-0.7,2.5-2.3,1.7-4.1c-0.4-0.8-0.8-1.6-1.2-2.4c-3.9-6.5-8.2-12.7-11.9-19.3c-1.1-2-2-4.2-3.8-5.9
			c-1-1-1.9-2.1-3.1-3.3c0,0.5,0,0.8,0,1.1c0.1,4.7-0.1,9.4,0.2,14c0,0.7-0.2,1-0.9,1c-1.9-0.1-3.8-0.1-5.7,0c-0.9,0-1-0.3-1-1.1
			c0-8.7,0-17.3,0-26c0-2,0-2,1.9-2.4c0.3-0.1,0.5-0.1,0.8-0.2c0.6-0.1,0.7-0.3,0.5-0.9c-1.4-3.5-2.6-7.1-3.7-10.7
			c-3.1-10.5-5-21.3-5.2-32.3c-0.2-8.1-0.2-16.3,0.4-24.4c0.4-5.1,1-10.3,1.6-15.4c0.3-2.6,0.6-5.2,0.1-7.8
			c-0.5-2.9-2.5-6.2-6.3-6.9c-1.3-0.2-2.5-0.4-3.8-0.4c-3.4,0-6.8,0.4-10.1,1c-0.6,0.1-0.8,0-0.8-0.6c-0.3-4.9-0.2-9.7,0.6-14.5
			c1.3-7.9,3.9-15.4,7.3-22.6c4.8-10.2,10.9-19.6,17.6-28.7c1.9-2.6,3.9-5.2,6.3-7.4c1.2-1.1,2.5-1.8,4.1-1.9
			c1.2-0.1,2.3-0.1,3.5-0.1c2.1,0,4-0.5,5.5-2c1-0.9,2.1-1.7,3.1-2.6c9.4-7.5,19.8-13.2,31.6-16.1c6.6-1.6,13.4-2.8,20.2-3.6
			c5.6-0.6,11.3-1.1,17-0.6c7.1,0.6,14.1,1.4,21,2.8c8.7,1.7,17.1,4.4,25,8.5c6.5,3.4,12.7,7.3,18.5,11.7c1.6,1.2,3.3,1.7,5.3,1.8
			c0.8,0,1.6,0.1,2.4,0c2.5-0.1,4.6,0.8,6.3,2.5c2.9,2.8,5.3,6.1,7.6,9.4c3.7,5.3,7.3,10.7,10.5,16.3c1.9,3.4,3.7,6.8,5.3,10.3
			c1.4,3.1,2.7,6.2,3.8,9.3c1.5,4.4,2.8,9,3.4,13.6c0.3,2.3,0.5,4.6,0.7,7c0.2,2.3-0.2,4.7-0.2,7c0,0.5-0.3,0.5-0.6,0.5
			c-1.6-0.3-3.3-0.5-4.9-0.7c-3-0.4-6-0.5-9,0c-2.8,0.5-4.6,2.1-5.6,4.6c-0.9,2.1-1.1,4.4-0.9,6.7c0.2,2.8,0.5,5.5,0.8,8.3
			c0.3,2.6,0.6,5.1,0.8,7.7c0.3,2.5,0.5,5,0.5,7.6c0.1,2.8,0.3,5.6,0.3,8.3c0,5.3-0.1,10.6-0.4,16c-0.1,1.8-0.2,3.6-0.4,5.3
			c-0.3,2.9-0.7,5.8-1.3,8.7c-1.3,6.9-3.1,13.6-5.4,20.2c-1.4,3.9-2.9,7.9-4.7,11.6c-0.2,0.5-0.2,0.8,0.2,1.2c1.8,2,3.6,4,5.5,6
			c0.7,0.7,1.3,1.4,2.1,2.3c0-0.5,0.1-0.7,0.1-0.9c0-4.8,0-9.6-0.1-14.3c0-0.7,0.2-0.9,0.9-0.9c2,0,3.9,0,5.9,0
			c0.6,0,0.9,0.2,0.8,0.8c0,1,0,1.9,0,2.9c0,8.1,0,16.2,0,24.3c0,0.7-0.1,1.1-0.9,1.2c-1.2,0.2-2.3,0.5-3.5,0.8
			c-0.6,0.1-0.9,0-1.3-0.4c-3.1-3.4-6.2-6.7-9.3-10.1C331.5,354.5,330.1,353,328.7,351.5z M264.4,324.4
			c6.5-26.5,12.7-53.1,19.2-79.7c0.2,0.4,0.3,0.7,0.4,0.9c2.5,6.6,5.1,13.1,7.6,19.7c4.1,10.7,8.3,21.4,12.4,32
			c0.2,0.5,0.3,0.8,1,0.8c2.5,0,4.9,0.1,7.4,0.1c5.6,0.2,11.3,0.3,16.9,0.4c3.5,0.1,7,0.1,10.4,0.2c0.5,0,0.8-0.1,0.8-0.7
			c0-0.9,0.1-1.9,0.2-2.8c0.2-4.7,0.4-9.5,0.3-14.2c-0.2-5.9-0.4-11.9-1-17.8c-0.4-3.7-0.8-7.3-1.2-11c-0.3-2.8-0.5-5.7,0.1-8.5
			c1-4.4,3.3-7.7,7.8-9.2c1.8-0.6,3.6-0.7,5.5-0.8c2.3-0.1,4.6,0.2,6.9,0.4c0.6,0.1,0.7-0.1,0.7-0.6c0.1-3.5-0.2-7-0.8-10.5
			c-1.2-6.9-3.6-13.5-6.5-19.8c-4.1-8.9-9.2-17.1-14.9-25.1c-2.4-3.4-4.8-6.8-7.8-9.8c-1.2-1.2-2.6-2-4.4-1.8c-0.7,0.1-1.4,0-2.2,0
			c-2.7-0.1-5.2-0.7-7.4-2.4c-2.6-2-5.4-3.9-8.2-5.7c-7.4-4.8-15.2-8.8-23.6-11.4c-6.9-2.1-14.1-3.4-21.3-4.3
			c-4.4-0.6-8.8-1-13.2-1.2c-4.5-0.2-9,0.4-13.5,0.9c-4.7,0.5-9.4,1.3-14,2.3c-6.8,1.4-13.4,3.5-19.6,6.6
			c-6.6,3.3-12.6,7.6-18.3,12.3c-1.6,1.3-3.4,2.4-5.5,2.7c-1.4,0.2-2.9,0.3-4.3,0.2c-1.7-0.1-3,0.5-4.2,1.7
			c-0.6,0.6-1.1,1.2-1.7,1.9c-4,4.8-7.5,9.9-10.9,15.2c-5.9,9.2-11.1,18.8-14.4,29.2c-1.9,6.1-2.9,12.4-3,18.8
			c0,0.6,0.1,0.9,0.8,0.8c3-0.3,6-0.6,9.1-0.2c5.1,0.5,8.7,2.6,10.8,8.2c1.3,3.4,0.8,6.9,0.5,10.4c-0.3,3.5-0.8,7-1.2,10.4
			c-0.4,4.4-0.8,8.7-0.9,13.1c-0.2,6.3-0.2,12.7,0.1,19c0,0.6,0.3,0.6,0.7,0.6c0.7,0,1.5-0.1,2.2-0.1c3.3-0.1,6.5,0,9.8-0.2
			c4.7-0.2,9.4,0,14-0.3c0.7,0,1,0.2,1.3,0.8c1.8,3.6,3.6,7.1,5.4,10.6c0.4,0.9,0.9,1.8,1.5,2.8c9.6-27.7,19.2-55.2,29-82.9
			c6.9,21.5,13.7,42.8,20.6,64.2c1.9-5.5,3.8-10.8,5.6-16.1c0.1,0,0.1,0,0.2,0.1C254.8,291.4,259.6,307.9,264.4,324.4z M298.8,354.8
			c2.4,0,4.6,0,6.8,0c0.7,0,0.4-0.4,0.2-0.7c-0.6-1.7-1.3-3.3-1.9-5c-0.4-1.1-0.8-2.2-1.4-3.6C301.3,348.7,300.1,351.7,298.8,354.8z
			"/>
		<path id="XMLID_68_" class="st2" d="M239.7,351.4c0-4.6,0-9.2,0-13.9c0-0.7,0.2-0.9,0.9-0.9c2.4-0.2,4.8-0.4,7.3-0.4
			c3.5-0.1,7.1,0.1,10.3,1.8c3,1.5,4.4,3.9,4.6,7.3c0.2,3.5-1.2,6.2-4.2,7.9c-0.7,0.4-0.4,0.7-0.1,1c2.3,3.7,4.7,7.4,7,11.1
			c0.1,0.2,0.5,0.5,0.3,0.8c-0.2,0.2-0.5,0.1-0.8,0.1c-2.5,0-4.9,0-7.4,0c-0.6,0-1-0.2-1.3-0.8c-1.6-2.9-3.3-5.8-4.9-8.8
			c-0.3-0.5-0.6-0.7-1.2-0.7c-2.4,0-2.4,0-2.4,2.4c0,2.3,0,4.6,0,6.9c0,0.7-0.2,0.9-0.9,0.9c-2.1,0-4.3,0-6.4,0
			c-0.7,0-0.8-0.2-0.8-0.9C239.7,360.6,239.7,356,239.7,351.4z M247.8,346.4c0,1.1,0,2.2,0,3.3c0,0.6,0.2,0.8,0.8,0.7
			c1.1,0,2.2,0,3.2,0c0.4,0,0.8-0.1,1.2-0.3c1.5-1,2.2-2.4,2.1-4.2c-0.1-1.6-1-2.7-2.4-3.3c-1.4-0.6-2.9-0.6-4.4-0.4
			c-0.4,0.1-0.4,0.4-0.4,0.7C247.8,344.1,247.8,345.3,247.8,346.4z"/>
		<path id="XMLID_67_" class="st2" d="M217.6,351.3c0-4.6,0-9.2,0-13.8c0-0.8,0.2-0.9,1-0.9c5.6,0,11.3,0,16.9,0c0.7,0,1,0.2,1,0.9
			c-0.1,1.4,0,2.9,0,4.3c0,0.6-0.2,0.8-0.8,0.8c-3.1,0-6.1,0-9.2,0c-0.9,0-1.1,0.3-1.1,1.1c0.1,1.1,0.1,2.2,0,3.3c0,0.7,0.1,1,0.9,1
			c2.7-0.1,5.4,0,8.1,0c0.6,0,0.8,0.2,0.8,0.8c0,1.4,0,2.8,0,4.1c0,0.7-0.1,0.9-0.8,0.9c-2.7,0-5.4,0-8.1,0c-0.7,0-0.9,0.2-0.9,0.9
			c0.1,1.5,0,3,0,4.5c0,0.6,0.2,0.8,0.8,0.8c3.8,0,7.5,0,11.3,0c0.9,0,0.9,0.3,0.8,1c-0.2,1.5-0.4,2.9-0.5,4.4
			c-0.1,0.6-0.3,0.9-1,0.9c-6.1,0-12.1,0-18.2,0c-0.7,0-1-0.2-1-1C217.6,360.5,217.6,355.9,217.6,351.3z"/>
		<path id="XMLID_66_" class="st2" d="M203.5,336.6c3.9,0,7.7,0,11.6,0c0.7,0,0.9,0.2,0.8,0.9c0,1.6,0,3.3,0,5
			c0,0.6-0.2,0.7-0.8,0.7c-2.3,0-4.6,0-6.8,0c-0.7,0-0.9,0.2-0.9,0.9c0,7,0,14,0,21.1c0,0.9-0.3,1.1-1.1,1.1c-2-0.1-4-0.1-5.9,0
			c-0.7,0-1-0.2-1-0.9c0-7,0-14,0-21.1c0-0.8-0.2-1.1-1.1-1c-2.2,0.1-4.4,0-6.7,0c-0.6,0-0.8-0.1-0.8-0.7c0-1.6,0.1-3.3,0-5
			c0-0.8,0.3-0.9,0.9-0.9C195.8,336.6,199.7,336.6,203.5,336.6z"/>
		<path id="XMLID_65_" class="st2" d="M267,351.3c0-4.6,0-9.2,0-13.9c0-0.7,0.2-0.9,0.9-0.9c2.1,0,4.2,0.1,6.3,0
			c0.7,0,0.9,0.2,0.9,0.9c0,7,0,13.9,0,20.9c0,0.8,0.2,1,1,1c3.4,0,6.8,0,10.2,0c0.7,0,1,0.1,0.9,0.9c-0.3,1.8-0.5,3.6-0.7,5.4
			c-0.1,0.4-0.3,0.4-0.6,0.4c-1.2,0-2.3,0-3.5,0c-4.8,0-9.6,0-14.4,0c-0.7,0-0.9-0.2-0.9-0.9C267,360.6,267,355.9,267,351.3z"/>
		<path id="XMLID_62_" class="st0" d="M328.7,351.5c1.4,1.5,2.8,3,4.1,4.5c3.1,3.4,6.2,6.7,9.3,10.1c0.4,0.4,0.8,0.5,1.3,0.4
			c1.2-0.3,2.3-0.6,3.5-0.8c0.8-0.1,0.9-0.5,0.9-1.2c0-8.1,0-16.2,0-24.3c0-1,0-1.9,0-2.9c0-0.7-0.2-0.8-0.8-0.8c-2,0-3.9,0-5.9,0
			c-0.7,0-0.9,0.2-0.9,0.9c0.1,4.8,0.1,9.6,0.1,14.3c0,0.2,0,0.5-0.1,0.9c-0.8-0.9-1.5-1.6-2.1-2.3c-1.8-2-3.6-4-5.5-6
			c-0.4-0.4-0.4-0.7-0.2-1.2c1.8-3.8,3.3-7.7,4.7-11.6c2.4-6.6,4.1-13.3,5.4-20.2c0.5-2.9,1-5.8,1.3-8.7c0.2-1.8,0.3-3.5,0.4-5.3
			c0.3-5.3,0.5-10.6,0.4-16c0-2.8-0.3-5.6-0.3-8.3c0-2.5-0.2-5-0.5-7.6c-0.3-2.6-0.6-5.1-0.8-7.7c-0.3-2.8-0.7-5.5-0.8-8.3
			c-0.1-2.3,0-4.6,0.9-6.7c1.1-2.5,2.9-4.1,5.6-4.6c3-0.5,6-0.4,9,0c1.7,0.2,3.3,0.4,4.9,0.7c0.4,0.1,0.6,0,0.6-0.5
			c0-2.3,0.4-4.6,0.2-7c-0.2-2.3-0.4-4.7-0.7-7c-0.6-4.7-1.9-9.2-3.4-13.6c-1.1-3.2-2.4-6.3-3.8-9.3c-1.6-3.5-3.4-6.9-5.3-10.3
			c-3.2-5.6-6.8-11-10.5-16.3c-2.3-3.3-4.7-6.6-7.6-9.4c-1.8-1.7-3.8-2.6-6.3-2.5c-0.8,0-1.6,0-2.4,0c-1.9-0.1-3.7-0.6-5.3-1.8
			c-5.9-4.4-12-8.4-18.5-11.7c-7.9-4.1-16.3-6.8-25-8.5c-7-1.3-14-2.2-21-2.8c-5.7-0.5-11.3,0-17,0.6c-6.8,0.7-13.5,1.9-20.2,3.6
			c-11.8,2.9-22.2,8.5-31.6,16.1c-1.1,0.8-2.1,1.7-3.1,2.6c-1.6,1.4-3.5,1.9-5.5,2c-1.2,0-2.3,0-3.5,0.1c-1.6,0.1-2.9,0.8-4.1,1.9
			c-2.4,2.2-4.4,4.8-6.3,7.4c-6.7,9-12.8,18.5-17.6,28.7c-3.4,7.2-6,14.7-7.3,22.6c-0.8,4.8-0.9,9.7-0.6,14.5c0,0.6,0.3,0.7,0.8,0.6
			c3.3-0.6,6.7-1,10.1-1c1.3,0,2.6,0.2,3.8,0.4c3.7,0.6,5.7,3.9,6.3,6.9c0.5,2.6,0.2,5.2-0.1,7.8c-0.6,5.1-1.2,10.2-1.6,15.4
			c-0.6,8.1-0.6,16.3-0.4,24.4c0.3,11,2.1,21.8,5.2,32.3c1.1,3.6,2.3,7.2,3.7,10.7c0.2,0.6,0.1,0.8-0.5,0.9c-0.3,0-0.5,0.1-0.8,0.2
			c-1.9,0.4-1.9,0.4-1.9,2.4c0,8.7,0,17.3,0,26c0,0.8,0.2,1.1,1,1.1c1.9-0.1,3.8-0.1,5.7,0c0.8,0,1-0.2,0.9-1
			c-0.2-4.7-0.1-9.4-0.2-14c0-0.3,0-0.6,0-1.1c1.1,1.2,2,2.3,3.1,3.3c1.7,1.7,2.6,3.8,3.8,5.9c3.7,6.6,8,12.9,11.9,19.3
			c0.5,0.8,0.9,1.6,1.2,2.4c0.8,1.8,0.1,3.4-1.7,4.1c-1.7,0.7-3.5,0.8-5.2,0.6c-15.9-2.2-31.4-6-46.3-12.2
			c-10.7-4.5-20.7-10.1-29.6-17.6c-7.1-6-13.1-13-17.4-21.4c-2.8-5.5-4.5-11.4-5.3-17.6c-0.7-6.1-1.3-12.2-1.2-18.4
			c0.1-8.5,1-16.9,3.6-25.1c2.6-8.3,7.5-15,13.9-20.6c4.2-3.7,8.8-6.7,14-8.8c0.5-0.2,0.6-0.5,0.6-0.9c0.5-4.2,1.1-8.4,1.9-12.5
			c2-10.9,4.2-21.8,9.1-31.9c6.3-13.1,13.9-25.5,23.6-36.5c2.2-2.5,4.3-5,6.6-7.4c1.2-1.3,1.8-2.8,1.6-4.6c-0.1-1.7,0-3.5,0.4-5.2
			c0.7-3.2,2.6-5.6,5-7.7c6.4-5.5,13.4-10,20.6-14.3c4.1-2.4,8.1-5,12.5-6.8c8.5-3.5,17.3-6,26.2-7.8c7.3-1.5,14.7-2.4,22.1-2.8
			c7.6-0.3,15.1-0.1,22.6,0.7c10.6,1.2,21,3.6,31.1,7c6.4,2.2,12.2,5.3,17.9,8.7c6.8,4,13.6,8.2,19.8,13.2c1.4,1.1,2.8,2.4,4.1,3.6
			c2.4,2.2,3.3,5,3.8,8c0.2,1.3,0.1,2.6,0,3.9c0,1.3,0.3,2.5,1.2,3.5c2.9,3.2,5.7,6.5,8.6,9.7c5.2,6,9.6,12.6,13.7,19.4
			c3.9,6.5,7.6,13.1,10.4,20.1c2.8,7.1,4.5,14.4,6,21.8c0.9,4.3,1.6,8.7,2.2,13.1c0.2,1.5,0.5,3,0.6,4.5c0.1,0.6,0.3,0.9,0.8,1.1
			c10.6,4.6,18.8,11.8,24.5,21.9c2.9,5.2,4.4,10.9,5.4,16.7c1.3,7.1,1.5,14.3,1.2,21.4c-0.3,6.7-0.7,13.4-2.4,20
			c-1.9,7.7-5.7,14.5-10.6,20.7c-6.1,7.8-13.6,14-21.9,19.2c-12.6,7.9-26.3,13.1-40.6,16.9c-7.5,2-15.1,3.5-22.7,4.6
			c-2,0.3-3.9,0.4-5.9-0.1c-2.5-0.7-3.4-2.5-2.3-4.9c1.4-3,3.3-5.7,5-8.4c1-1.6,2.1-3.3,3.1-4.9c0.4-0.7,0.9-1,1.7-1
			c1.7,0.1,3.4,0,5.1,0c0.7,0,1-0.2,1-0.9c-0.1-3.1,0-6.3-0.2-9.5C327.2,354.1,327.9,352.9,328.7,351.5z M150.5,351.2
			c0,4.7,0,9.4,0,14.1c0,0.6,0.2,0.8,0.8,0.8c2.2,0,4.3,0,6.5,0c0.6,0,0.8-0.1,0.8-0.8c0-9.3,0-18.7,0-28c0-0.7-0.2-0.9-0.9-0.9
			c-2.1,0-4.3,0-6.4,0c-0.7,0-0.9,0.2-0.9,0.9C150.5,341.9,150.5,346.6,150.5,351.2z"/>
		<path id="XMLID_61_" class="st1" d="M264.4,324.4c-4.8-16.5-9.7-33-14.5-49.4c-0.1,0-0.1,0-0.2-0.1c-1.9,5.3-3.7,10.7-5.6,16.1
			c-6.9-21.4-13.7-42.7-20.6-64.2c-9.8,27.7-19.4,55.2-29,82.9c-0.5-1-1-1.9-1.5-2.8c-1.8-3.5-3.6-7.1-5.4-10.6
			c-0.3-0.6-0.6-0.8-1.3-0.8c-4.7,0.2-9.4,0.1-14,0.3c-3.3,0.1-6.5,0-9.8,0.2c-0.7,0-1.5,0.1-2.2,0.1c-0.5,0-0.7-0.1-0.7-0.6
			c-0.3-6.3-0.3-12.7-0.1-19c0.1-4.4,0.4-8.7,0.9-13.1c0.4-3.5,0.9-7,1.2-10.4c0.3-3.5,0.8-7-0.5-10.4c-2.1-5.6-5.7-7.7-10.8-8.2
			c-3-0.3-6.1-0.1-9.1,0.2c-0.7,0.1-0.9-0.2-0.8-0.8c0-6.4,1.1-12.7,3-18.8c3.3-10.5,8.5-20.1,14.4-29.2c3.4-5.2,7-10.4,10.9-15.2
			c0.5-0.6,1.1-1.3,1.7-1.9c1.1-1.2,2.4-1.9,4.2-1.7c1.4,0.1,2.9,0,4.3-0.2c2.1-0.3,3.9-1.3,5.5-2.7c5.7-4.7,11.7-9,18.3-12.3
			c6.2-3.1,12.8-5.1,19.6-6.6c4.6-1,9.3-1.8,14-2.3c4.5-0.5,9-1.1,13.5-0.9c4.4,0.2,8.8,0.6,13.2,1.2c7.2,0.9,14.3,2.2,21.3,4.3
			c8.5,2.6,16.2,6.6,23.6,11.4c2.8,1.8,5.5,3.7,8.2,5.7c2.2,1.7,4.7,2.3,7.4,2.4c0.7,0,1.4,0.1,2.2,0c1.8-0.2,3.2,0.6,4.4,1.8
			c2.9,3,5.3,6.4,7.8,9.8c5.7,8,10.8,16.2,14.9,25.1c2.9,6.3,5.3,12.9,6.5,19.8c0.6,3.5,0.9,7,0.8,10.5c0,0.5-0.1,0.7-0.7,0.6
			c-2.3-0.2-4.6-0.5-6.9-0.4c-1.9,0.1-3.7,0.2-5.5,0.8c-4.5,1.4-6.8,4.8-7.8,9.2c-0.7,2.8-0.4,5.7-0.1,8.5c0.4,3.7,0.8,7.3,1.2,11
			c0.7,5.9,0.9,11.8,1,17.8c0.1,4.7,0,9.5-0.3,14.2c0,0.9-0.1,1.9-0.2,2.8c0,0.6-0.2,0.7-0.8,0.7c-3.5-0.1-7-0.1-10.4-0.2
			c-5.6-0.1-11.3-0.2-16.9-0.4c-2.5-0.1-4.9-0.1-7.4-0.1c-0.7,0-0.8-0.4-1-0.8c-4.1-10.7-8.3-21.4-12.4-32
			c-2.5-6.6-5.1-13.1-7.6-19.7c-0.1-0.3-0.2-0.5-0.4-0.9C277.1,271.3,270.9,297.8,264.4,324.4z"/>
		<path id="XMLID_60_" class="st1" d="M298.8,354.8c1.2-3.1,2.4-6,3.7-9.2c0.5,1.3,0.9,2.5,1.4,3.6c0.6,1.7,1.3,3.3,1.9,5
			c0.1,0.3,0.4,0.7-0.2,0.7C303.4,354.8,301.2,354.8,298.8,354.8z"/>
		<path id="XMLID_59_" class="st1" d="M247.8,346.4c0-1.1,0-2.3,0-3.4c0-0.3,0-0.6,0.4-0.7c1.5-0.2,3-0.2,4.4,0.4
			c1.5,0.6,2.3,1.7,2.4,3.3c0.1,1.8-0.5,3.2-2.1,4.2c-0.4,0.2-0.8,0.3-1.2,0.3c-1.1,0-2.2,0-3.2,0c-0.6,0-0.8-0.1-0.8-0.7
			C247.8,348.6,247.8,347.5,247.8,346.4z"/>
		<path id="XMLID_58_" class="st2" d="M150.5,351.2c0-4.6,0-9.2,0-13.9c0-0.7,0.2-0.9,0.9-0.9c2.1,0,4.3,0,6.4,0
			c0.7,0,0.9,0.2,0.9,0.9c0,9.3,0,18.7,0,28c0,0.7-0.2,0.8-0.8,0.8c-2.2,0-4.3,0-6.5,0c-0.6,0-0.8-0.2-0.8-0.8
			C150.5,360.6,150.5,355.9,150.5,351.2z"/>
	</g>
</g>
</svg>
