<?xml version="1.0" encoding="utf-8"?>
<!-- Generator: Adobe Illustrator 19.0.0, SVG Export Plug-In . SVG Version: 6.00 Build 0)  -->
<svg version="1.1" id="Layer_1" xmlns="http://www.w3.org/2000/svg"  x="0px" y="0px"
	 viewBox="0 0 1000 1000" style="enable-background:new 0 0 1000 1000;" xml:space="preserve">
<style type="text/css">
	.st0{fill:#93C242;}
</style>
<g id="XMLID_2_">
	<path id="XMLID_3_" class="st0" d="M226.7,100.3c16.6-13.9,34.6-26.9,54.1-39.1c19.5-12.1,40.4-22.8,62.8-32
		c22.4-9.2,46.5-16.4,72.2-21.6C441.4,2.6,469.3,0,499.3,0c42.1,0,80,5.6,113.8,16.8s62.6,27.3,86.3,48.1s42,46,54.8,75.4
		c12.8,29.4,19.1,62,19.1,97.9c0,34.6-4.7,64.2-14.1,88.9c-9.4,24.7-21.4,46.2-35.9,64.6c-14.6,18.4-30.5,34.2-47.7,47.5
		c-17.2,13.2-33.6,25.7-49,37.4c-15.5,11.7-28.9,23.1-40.3,34.3c-11.4,11.2-18.5,23.8-21.1,37.7l-18.8,94.2H404l-14.8-108.4
		c-0.5-2.7-0.8-5.4-1-8.1c-0.2-2.7-0.3-5.4-0.3-8.1c0-19.7,4.7-37,14.1-51.8c9.4-14.8,21.3-28.4,35.6-40.7
		c14.3-12.3,29.8-24.2,46.4-35.7c16.5-11.4,32-23.8,46.3-37c14.3-13.2,26.2-28,35.6-44.4c9.4-16.4,14.1-35.8,14.1-58.2
		c0-26.9-8.9-48.4-26.5-64.3c-17.7-15.9-42-23.9-72.8-23.9c-23.8,0-43.6,2.5-59.4,7.4c-15.9,4.9-29.6,10.4-41,16.5
		c-11.4,6.1-21.4,11.6-29.9,16.5c-8.5,4.9-17,7.4-25.5,7.4c-19.3,0-33.6-8.3-43-24.9L226.7,100.3z M350.2,885.4
		c0-16.1,3-31,9.1-44.9c6-13.8,14.3-25.9,24.8-36.2c10.5-10.3,23-18.4,37.3-24.5s30-9,47-9c16.6,0,32,3,46.4,9s26.9,14.2,37.6,24.5
		c10.7,10.3,19.1,22.3,25.2,36.2c6,13.9,9.1,28.8,9.1,44.9c0,16.1-3,31.2-9.1,45.2c-6.1,14.1-14.5,26.3-25.2,36.5
		c-10.7,10.3-23.3,18.3-37.6,24.1s-29.8,8.7-46.4,8.7c-17,0-32.7-2.9-47-8.7s-26.8-13.8-37.3-24.1c-10.5-10.3-18.8-22.5-24.8-36.5
		C353.2,916.6,350.2,901.5,350.2,885.4z"/>
</g>
</svg>
